#!OML:ASF E:\motion texture\Top Level 1\Subject 1\Session 1\male.ASF
:FULLY-SPECIFIED
:DEGREES
417
root -3.80585 18.01 5.34419 126.63 -80.9954 -119.27
lowerback 2.03431 0.540235 6.26196
upperback -1.0706 0.853026 5.16095
thorax -2.23319 0.302651 1.78783
lowerneck -19.6872 -1.45441 -3.53793
upperneck 20.4647 -1.48242 1.79009
head 9.78702 -0.79719 0.996872
rclavicle -6.95746e-015 5.88403e-014
rhumerus -29.6062 -7.14368 -79.2644
rradius 43.2097
rwrist 14.4132
rhand -16.3024 -23.3744
rfingers 7.12502
rthumb 9.90844 -413.121
lclavicle -6.95746e-015 5.88403e-014
lhumerus -24.8529 -4.89791 89.2067
lradius 35.2401
lwrist -21.6257
lhand -18.3689 21.9643
lfingers 7.12502
lthumb 7.91427 51.7961
rfemur -21.1183 2.20713 30.2006
rtibia 20.6712
rfoot -4.70682 -6.22613
rtoes 15.6552
lfemur -18.5455 3.035 -8.36441
ltibia 53.9997
lfoot 0.441579 -2.19358
ltoes -21.1467
418
root -3.96427 18.0235 5.31701 126.917 -80.7385 -119.611
lowerback 2.00053 0.665008 6.51453
upperback -1.04309 1.01842 5.1411
thorax -2.17875 0.381559 1.62128
lowerneck -19.6306 -1.42065 -3.51458
upperneck 20.5291 -1.4523 1.80828
head 9.79844 -0.780783 1.0039
rclavicle 5.36719e-015 -2.3059e-014
rhumerus -29.5366 -7.00367 -79.3136
rradius 43.5642
rwrist 14.3058
rhand -16.4086 -23.4708
rfingers 7.12502
rthumb 9.80596 -413.222
lclavicle 5.36719e-015 -2.3059e-014
lhumerus -25.3897 -3.68621 89.2319
lradius 33.8693
lwrist -22.0383
lhand -18.3353 22.0097
lfingers 7.12502
lthumb 7.94669 51.8403
rfemur -20.2818 2.32823 30.5319
rtibia 20.3787
rfoot -5.01327 -6.0822
rtoes 15.8008
lfemur -19.4986 3.3447 -8.0813
ltibia 54.7047
lfoot 0.440423 -1.90759
ltoes -21.1525
419
root -4.12209 18.0361 5.29032 127.232 -80.486 -119.974
lowerback 1.96416 0.790015 6.75808
upperback -1.01791 1.18365 5.116
thorax -2.12378 0.460766 1.45485
lowerneck -19.5752 -1.38669 -3.49136
upperneck 20.5895 -1.42177 1.82702
head 9.80865 -0.764053 1.01119
rclavicle -1.03368e-014 8.74653e-015
rhumerus -29.4599 -6.85836 -79.3687
rradius 43.9414
rwrist 14.2072
rhand -16.5235 -23.5669
rfingers 7.12502
rthumb 9.69512 -413.324
lclavicle -1.03368e-014 8.74653e-015
lhumerus -25.9159 -2.34722 89.1561
lradius 32.5017
lwrist -22.4598
lhand -18.2872 22.0687
lfingers 7.12502
lthumb 7.99315 51.8975
rfemur -19.4444 2.44745 30.8505
rtibia 20.0705
rfoot -5.32746 -5.94164
rtoes 15.9028
lfemur -20.4381 3.64952 -7.81463
ltibia 55.2871
lfoot 0.374394 -1.58648
ltoes -21.1293
420
root -4.27932 18.0478 5.26409 127.562 -80.2365 -120.346
lowerback 1.92645 0.914937 6.99463
upperback -0.995905 1.34856 5.08622
thorax -2.06988 0.540079 1.288
lowerneck -19.5217 -1.35259 -3.46745
upperneck 20.6463 -1.39109 1.84615
head 9.81794 -0.74708 1.01851
rclavicle -1.39149e-015 -2.14687e-014
rhumerus -29.3765 -6.70695 -79.4299
rradius 44.341
rwrist 14.1176
rhand -16.6501 -23.657
rfingers 7.12502
rthumb 9.57299 -413.42
lclavicle -1.39149e-015 -2.14687e-014
lhumerus -26.4345 -0.878533 88.9712
lradius 31.143
lwrist -22.8985
lhand -18.2265 22.1485
lfingers 7.12502
lthumb 8.05176 51.9751
rfemur -18.6085 2.56733 31.1589
rtibia 19.7493
rfoot -5.64796 -5.80811
rtoes 15.981
lfemur -21.3598 3.94809 -7.56081
ltibia 55.7411
lfoot 0.246722 -1.23134
ltoes -21.0777
421
root -4.43606 18.0585 5.23834 127.902 -79.9906 -120.722
lowerback 1.8856 1.03937 7.22419
upperback -0.976782 1.51238 5.05192
thorax -2.01579 0.619145 1.12096
lowerneck -19.4686 -1.31808 -3.44589
upperneck 20.698 -1.35985 1.86913
head 9.82553 -0.729488 1.02764
rclavicle -1.28216e-014 2.06736e-014
rhumerus -29.2863 -6.54775 -79.4977
rradius 44.7629
rwrist 14.0362
rhand -16.7864 -23.7487
rfingers 7.12502
rthumb 9.44148 -413.517
lclavicle -1.28216e-014 2.06736e-014
lhumerus -26.9489 0.725255 88.6689
lradius 29.7996
lwrist -23.3666
lhand -18.163 22.2422
lfingers 7.12502
lthumb 8.11299 52.0665
rfemur -17.7763 2.68495 31.457
rtibia 19.4189
rfoot -5.96865 -5.68259
rtoes 16.018
lfemur -22.259 4.23789 -7.31997
ltibia 56.0603
lfoot 0.0617404 -0.843003
ltoes -20.993
422
root -4.59228 18.0682 5.2131 128.247 -79.7482 -121.096
lowerback 1.84248 1.16318 7.44727
upperback -0.961332 1.67513 5.0137
thorax -1.96287 0.69789 0.954063
lowerneck -19.4159 -1.28407 -3.42597
upperneck 20.7442 -1.329 1.894
head 9.83124 -0.711898 1.03762
rclavicle -3.97569e-015 -2.78299e-014
rhumerus -29.1914 -6.38133 -79.5714
rradius 45.2092
rwrist 13.9631
rhand -16.9259 -23.8385
rfingers 7.12502
rthumb 9.3068 -413.613
lclavicle -3.97569e-015 -2.78299e-014
lhumerus -27.4682 2.46475 88.2417
lradius 28.4837
lwrist -23.8738
lhand -18.0942 22.3493
lfingers 7.12502
lthumb 8.17941 52.171
rfemur -16.9514 2.80042 31.7455
rtibia 19.0826
rfoot -6.28866 -5.5686
rtoes 16.0186
lfemur -23.1333 4.51647 -7.09086
ltibia 56.2405
lfoot -0.175264 -0.424066
ltoes -20.8766
423
root -4.74795 18.0768 5.18834 128.583 -79.5106 -121.452
lowerback 1.79543 1.2853 7.66312
upperback -0.948912 1.83509 4.97277
thorax -1.90968 0.775501 0.789054
lowerneck -19.3665 -1.25049 -3.40851
upperneck 20.7836 -1.29793 1.92046
head 9.83519 -0.694073 1.04858
rclavicle 1.37161e-014 3.18055e-014
rhumerus -29.0883 -6.20592 -79.6505
rradius 45.6787
rwrist 13.8968
rhand -17.0777 -23.9218
rfingers 7.12502
rthumb 9.1604 -413.703
lclavicle 1.37161e-014 3.18055e-014
lhumerus -27.9985 4.33976 87.6827
lradius 27.2046
lwrist -24.4314
lhand -18.0181 22.4704
lfingers 7.12502
lthumb 8.25287 52.2892
rfemur -16.1369 2.91226 32.025
rtibia 18.7433
rfoot -6.60872 -5.46557
rtoes 15.9804
lfemur -23.9818 4.78069 -6.87219
ltibia 56.2791
lfoot -0.458272 0.0210208
ltoes -20.7258
424
root -4.90318 18.0843 5.16406 128.915 -79.2784 -121.794
lowerback 1.74556 1.40592 7.87159
upperback -0.940741 1.99278 4.92844
thorax -1.85814 0.852152 0.625239
lowerneck -19.3181 -1.21778 -3.39336
upperneck 20.8162 -1.26766 1.94937
head 9.83691 -0.676392 1.06063
rclavicle -1.08338e-014 -6.91771e-014
rhumerus -28.9803 -6.02305 -79.7351
rradius 46.1715
rwrist 13.8373
rhand -17.2355 -24.0054
rfingers 7.12502
rthumb 9.00807 -413.793
lclavicle -1.08338e-014 -6.91771e-014
lhumerus -28.5528 6.3472 86.9835
lradius 25.9736
lwrist -25.0506
lhand -17.9402 22.6054
lfingers 7.12502
lthumb 8.32804 52.4212
rfemur -15.3341 3.01993 32.2943
rtibia 18.4032
rfoot -6.92973 -5.36909
rtoes 15.9141
lfemur -24.8004 5.02821 -6.66435
ltibia 56.1736
lfoot -0.781063 0.485928
ltoes -20.5315
425
root -5.0581 18.0906 5.14031 129.254 -79.0498 -122.137
lowerback 1.69233 1.52602 8.07234
upperback -0.935446 2.1493 4.88141
thorax -1.80658 0.928455 0.463532
lowerneck -19.2694 -1.18632 -3.38076
upperneck 20.8399 -1.2383 1.9796
head 9.83552 -0.659049 1.07342
rclavicle 1.01877e-014 -2.54444e-014
rhumerus -28.8673 -5.83239 -79.8244
rradius 46.6879
rwrist 13.7846
rhand -17.4026 -24.0845
rfingers 7.12502
rthumb 8.84682 -413.879
lclavicle 1.01877e-014 -2.54444e-014
lhumerus -29.1407 8.47649 86.1401
lradius 24.8016
lwrist -25.7297
lhand -17.8532 22.7595
lfingers 7.12502
lthumb 8.41206 52.572
rfemur -14.5425 3.12466 32.5534
rtibia 18.0651
rfoot -7.25176 -5.27637
rtoes 15.8139
lfemur -25.5828 5.26017 -6.46619
ltibia 55.9215
lfoot -1.13861 0.968964
ltoes -20.3039
426
root -5.21277 18.0958 5.1171 129.603 -78.8262 -122.483
lowerback 1.63672 1.64536 8.26433
upperback -0.932888 2.30445 4.83133
thorax -1.75549 1.0043 0.304114
lowerneck -19.222 -1.15624 -3.37173
upperneck 20.8551 -1.20998 2.01233
head 9.83136 -0.642033 1.08748
rclavicle -4.52235e-015 -6.20208e-014
rhumerus -28.7489 -5.63465 -79.9182
rradius 47.227
rwrist 13.7383
rhand -17.5754 -24.1619
rfingers 7.12502
rthumb 8.68011 -413.963
lclavicle -4.52235e-015 -6.20208e-014
lhumerus -29.7747 10.7154 85.1474
lradius 23.6981
lwrist -26.4726
lhand -17.7647 22.9299
lfingers 7.12502
lthumb 8.4974 52.739
rfemur -13.7628 3.22627 32.8005
rtibia 17.7311
rfoot -7.57327 -5.18878
rtoes 15.6821
lfemur -26.3263 5.47389 -6.27812
ltibia 55.5239
lfoot -1.52486 1.46517
ltoes -20.0354
427
root -5.36722 18.0998 5.09442 129.96 -78.6093 -122.83
lowerback 1.57863 1.76353 8.44614
upperback -0.933778 2.45776 4.778
thorax -1.70571 1.07944 0.147546
lowerneck -19.1753 -1.12781 -3.3655
upperneck 20.861 -1.18315 2.0469
head 9.82413 -0.625568 1.1024
rclavicle 1.31695e-014 2.70347e-014
rhumerus -28.6265 -5.4302 -80.0166
rradius 47.7886
rwrist 13.6965
rhand -17.7521 -24.2391
rfingers 7.12502
rthumb 8.50958 -414.048
lclavicle 1.31695e-014 2.70347e-014
lhumerus -30.4673 13.0443 84.0032
lradius 22.6724
lwrist -27.2763
lhand -17.6722 23.1233
lfingers 7.12502
lthumb 8.58666 52.9287
rfemur -12.997 3.32182 33.0343
rtibia 17.4032
rfoot -7.89507 -5.10791
rtoes 15.5248
lfemur -27.0312 5.66877 -6.10072
ltibia 54.985
lfoot -1.9355 1.96927
ltoes -19.7493
